<?xml version="1.0" encoding="utf-8"?>
<!-- Generator: Adobe Illustrator 16.0.0, SVG Export Plug-In . SVG Version: 6.00 Build 0)  -->
<!DOCTYPE svg PUBLIC "-//W3C//DTD SVG 1.1//EN" "http://www.w3.org/Graphics/SVG/1.1/DTD/svg11.dtd">
<svg version="1.1" id="Layer_1" xmlns="http://www.w3.org/2000/svg" xmlns:xlink="http://www.w3.org/1999/xlink" x="0px" y="0px"
	 width="40px" height="39.003px" viewBox="0 0 40 39.003" enable-background="new 0 0 40 39.003" xml:space="preserve">
<g>
	<path fill-rule="evenodd" clip-rule="evenodd" fill="#444444" d="M10.63,12.773v-5.36c-0.94,0-1.85-0.01-2.77,0.01
		c-0.12,0-0.27,0.12-0.35,0.22c-1.13,1.5-2.24,2.99-3.35,4.5c-0.11,0.16-0.14,0.39-0.23,0.63H10.63z M15.351,22.173h21.29v-1.96
		h-21.29V22.173z M19.34,18.843c1.57,0,3.04-0.01,4.52,0.01c0.31,0,0.45-0.12,0.6-0.38c2.93-5.55,5.88-11.09,8.83-16.64l0.23-0.47
		c-0.22,0-0.37,0.02-0.52-0.01c-0.48-0.08-0.77,0.13-1.06,0.52c-3.45,4.67-6.92,9.33-10.38,13.98L19.34,18.843z M29.67,23.583
		h-19.34c1.07,1.08,2.1,2.12,3.14,3.15c0.1,0.1,0.28,0.16,0.43,0.16c4.07,0.01,8.13,0.01,12.2,0.01c0.14,0,0.31-0.05,0.4-0.14
		C27.55,25.723,28.59,24.673,29.67,23.583z M12,7.433v0.44l-0.01,5.38c0,0.67-0.2,0.88-0.86,0.88h-6.41h-0.7v8.03h9.96V7.433H12z
		 M19.991,28.243l-3.25,0.01c-3.82,0-7.63-0.02-11.45,0c-1.94,0.01-3.53,1.23-3.83,3.08c-0.17,0.99-0.12,2.03-0.04,3.04
		c0.08,1.04,0.64,1.87,1.46,2.49c0.78,0.59,1.67,0.8,2.62,0.8l12.42-0.01c5.58,0,11.16,0.01,16.74,0c1.93,0,3.45-1.16,3.86-3
		c0.26-1.12,0.26-2.29,0-3.41c-0.43-1.87-1.94-2.99-3.95-2.99L19.991,28.243z M11.63,26.803c-1.05-1.05-2.1-2.11-3.16-3.15
		c-0.09-0.09-0.28-0.11-0.42-0.11c-1.52,0-3.03,0-4.55,0c-0.62,0-0.84-0.22-0.84-0.86c0-3.46,0-6.91,0.01-10.37
		c0-0.25,0.09-0.53,0.23-0.73c1.26-1.72,2.54-3.43,3.81-5.15c0.19-0.26,0.42-0.37,0.74-0.37c2.36,0.01,4.72,0,7.08,0.01
		c0.58,0,0.8,0.22,0.8,0.82v11.42v0.52c0.76,0,1.5,0.02,2.24-0.01c0.11-0.01,0.23-0.19,0.31-0.3c4.48-6.01,8.95-12.02,13.42-18.04
		c0.24-0.32,0.49-0.49,0.9-0.47c0.76,0.03,1.53,0.05,2.29-0.01c0.68-0.05,1.03,0.56,0.69,1.18c-2.57,4.8-5.12,9.61-7.68,14.41
		l-1.7,3.23c0.17,0,0.28,0.01,0.4,0.01l10.92,0.01c0.68,0,0.88,0.19,0.88,0.9v2.94c-0.01,0.64-0.21,0.86-0.84,0.86
		c-1.71,0-3.42,0.01-5.13-0.01c-0.28,0-0.49,0.08-0.69,0.28c-0.98,1.01-1.98,2-3.06,3.09h0.53h5.88c2.85,0,5.31,2.49,5.3,5.37
		c0,0.99,0.08,1.98-0.24,2.95c-0.72,2.21-2.83,3.78-5.13,3.78H5.331c-2.89,0-5.34-2.47-5.33-5.38c0-0.87-0.02-1.76,0.17-2.59
		c0.57-2.46,2.75-4.13,5.25-4.13h5.75h0.41L11.63,26.803z"/>
	<path fill-rule="evenodd" clip-rule="evenodd" fill="#444444" d="M35.931,13.153l1.78-1.79c-0.51-0.49-1.02-1.04-1.6-1.51
		c-0.63-0.52-0.82-1.13-0.8-1.93c0.06-1.71,0.02-3.42,0.02-5.12c0.01-0.47,0.26-0.75,0.65-0.76c0.42-0.01,0.67,0.28,0.68,0.77v0.17
		c0,1.65,0.02,3.3,0,4.95c-0.01,0.38,0.09,0.65,0.37,0.91c0.67,0.65,1.32,1.32,1.97,1.98c0.45,0.46,0.46,0.78,0.02,1.22l-2.44,2.46
		c-0.41,0.42-0.75,0.42-1.15,0.02l-2.44-2.46l-0.12-0.12c-0.27-0.32-0.27-0.71,0-0.98c0.27-0.26,0.66-0.27,0.96,0.03
		c0.64,0.62,1.26,1.26,1.89,1.9C35.8,12.973,35.86,13.063,35.931,13.153z"/>
	<path fill-rule="evenodd" clip-rule="evenodd" fill="#444444" d="M32.98,34.633c0.99,0.01,1.68-0.68,1.68-1.68
		c0-0.98-0.65-1.66-1.63-1.68c-0.99-0.02-1.69,0.66-1.7,1.66C31.32,33.933,31.991,34.623,32.98,34.633z M30,32.953
		c0-1.61,1.4-3.02,3-3.02c1.57,0,3,1.43,3,3c-0.01,1.63-1.41,3.04-3.03,3.04C31.411,35.973,30,34.533,30,32.953z"/>
	<path fill-rule="evenodd" clip-rule="evenodd" fill="#444444" d="M8.661,32.933c-0.01-1-0.7-1.67-1.7-1.66
		c-0.97,0.01-1.64,0.71-1.63,1.68c0.01,1,0.69,1.69,1.68,1.68C8,34.623,8.67,33.933,8.661,32.933z M7,35.973
		c-1.59,0-3.01-1.43-3.01-3.02c0.01-1.61,1.43-3.03,3.02-3.03c1.56,0.01,2.98,1.44,2.98,3.01C10,34.543,8.581,35.973,7,35.973z"/>
	<path fill-rule="evenodd" clip-rule="evenodd" fill="#444444" d="M15.65,34.633c1,0,1.67-0.67,1.68-1.67
		c0-0.99-0.66-1.67-1.63-1.69c-1.02-0.01-1.71,0.67-1.7,1.69C14,33.943,14.67,34.623,15.65,34.633z M12.661,32.953
		c-0.01-1.55,1.41-3.02,2.93-3.02c1.66-0.01,3.06,1.38,3.07,3.04c0.01,1.52-1.41,2.99-2.9,3
		C14.101,35.993,12.67,34.603,12.661,32.953z"/>
	<path fill-rule="evenodd" clip-rule="evenodd" fill="#444444" d="M25.991,32.963c0-1-0.68-1.69-1.66-1.69c-1,0-1.67,0.68-1.67,1.69
		c0,0.99,0.69,1.67,1.69,1.67C25.311,34.633,26,33.943,25.991,32.963z M21.331,32.943c0-1.6,1.42-3.02,3.02-3.01
		c1.56,0,2.98,1.44,2.98,3.01c0,1.6-1.42,3.03-3,3.04C22.75,35.983,21.331,34.543,21.331,32.943z"/>
</g>
</svg>
