<?xml version="1.0" encoding="utf-8"?>
<!-- Generator: Adobe Illustrator 16.0.0, SVG Export Plug-In . SVG Version: 6.00 Build 0)  -->
<!DOCTYPE svg PUBLIC "-//W3C//DTD SVG 1.1//EN" "http://www.w3.org/Graphics/SVG/1.1/DTD/svg11.dtd">
<svg version="1.1" id="Layer_1" xmlns="http://www.w3.org/2000/svg" xmlns:xlink="http://www.w3.org/1999/xlink" x="0px" y="0px"
	 width="40.002px" height="36px" viewBox="0 0 40.002 36" enable-background="new 0 0 40.002 36" xml:space="preserve">
<g>
	<path fill-rule="evenodd" clip-rule="evenodd" fill="#444444" d="M29.36,29.98c-0.15,2.21,1.56,4.72,4.69,4.7
		c2.71-0.02,4.68-2.08,4.64-4.79c-0.04-2.62-2.09-4.59-4.74-4.57C31.31,25.35,29.32,27.37,29.36,29.98z M0,18.28
		c1.36-1.84,3.14-3.14,5.25-3.98c7.56-3.02,15.8,1.54,17.21,9.57c0.22,1.25,0.15,2.56,0.2,3.85c0.02,0.52,0,1.04,0,1.59h5.36
		c0.47-3.45,3.81-5.77,6.93-5.22c2.95,0.51,5.14,3.19,5.05,6.19c-0.1,2.88-2.56,5.44-5.55,5.7c-2.92,0.25-5.89-1.92-6.42-5.31h-0.44
		h-5.35c-0.68,0-0.89-0.22-0.89-0.89c-0.01-1.31,0-2.63-0.01-3.94c-0.03-4.94-3.29-9.33-8.04-10.68c-4.71-1.34-8.72-0.11-11.98,3.55
		C0.83,19.26,0.46,19.26,0,18.67V18.28z"/>
	<path fill-rule="evenodd" clip-rule="evenodd" fill="#444444" d="M1.32,25.96c-0.02,4.87,3.76,8.69,8.63,8.73
		c4.86,0.03,8.7-3.76,8.73-8.62c0.03-4.86-3.75-8.72-8.57-8.74C5.17,17.3,1.34,21.06,1.32,25.96z M0,25.23
		c0.1-0.52,0.18-1.04,0.3-1.56c0.99-4.03,4.42-7.07,8.54-7.58c5.17-0.65,10.14,3.12,11.02,8.27c0.92,5.4-2.94,10.78-8.59,11.55
		c-5.19,0.72-10.25-3.05-11.11-8.24L0,26.8V25.23z"/>
	<path fill-rule="evenodd" clip-rule="evenodd" fill="#444444" d="M30.68,13.37c0-1.11,0.01-2.21,0-3.32
		c-0.01-0.57-0.17-0.71-0.74-0.7c-0.45,0.01-0.6,0.17-0.6,0.71c-0.02,1.45-0.01,2.89-0.01,4.34c0,0.74-0.01,1.48,0,2.22
		c0.01,0.49,0.17,0.68,0.59,0.72c0.49,0.05,0.75-0.17,0.76-0.69C30.69,15.55,30.68,14.46,30.68,13.37z M18.95,1.34l1.23,3.37
		c1.16,3.19,2.32,6.38,3.47,9.57c0.11,0.31,0.25,0.42,0.58,0.41c1.23-0.02,2.47-0.01,3.75-0.01c0.01-0.18,0.03-0.33,0.03-0.48
		c0-1.34,0-2.68,0-4.02C28,9.35,28.37,8.73,29.06,8.3c0.2-0.13,0.29-0.25,0.29-0.49c-0.02-0.6,0-1.2-0.01-1.8
		c-0.01-0.47-0.15-0.63-0.61-0.69c-0.51-0.08-0.77-0.34-0.7-0.75c0.06-0.42,0.42-0.63,0.91-0.54c0.97,0.18,1.7,1.03,1.72,2.04
		c0.02,0.57,0.01,1.14,0,1.72c0,0.22,0.05,0.37,0.27,0.5c0.7,0.41,1.08,1.03,1.08,1.86v4.03v0.5h0.42h5.43
		c0.58,0.01,0.81,0.23,0.81,0.8v7.7c0,0.5-0.22,0.78-0.61,0.8c-0.43,0.03-0.7-0.24-0.7-0.74v-5.85v-1.36h-5.33
		c-0.01,0.12-0.03,0.22-0.02,0.32c0.04,0.92-0.36,1.59-1.13,2.08c-0.11,0.07-0.2,0.26-0.2,0.4c-0.03,0.56-0.01,1.12-0.01,1.68
		c-0.01,0.53-0.24,0.8-0.65,0.81c-0.43,0.01-0.67-0.28-0.68-0.82c0-0.56,0.01-1.12,0-1.68c-0.01-0.12-0.06-0.31-0.15-0.36
		c-0.88-0.5-1.25-1.25-1.19-2.24c0.01-0.05-0.01-0.1-0.02-0.22h-0.45h-3.98c-0.55,0-0.7-0.11-0.89-0.63
		c-1.64-4.49-3.28-8.98-4.9-13.48c-0.16-0.45-0.36-0.58-0.83-0.58c-3.29,0.02-6.59,0.02-9.88,0c-0.4,0-0.56,0.12-0.64,0.51
		C5.63,5.36,4.84,8.9,4.06,12.44c-0.03,0.12-0.05,0.23-0.08,0.34c-0.11,0.4-0.44,0.61-0.79,0.52c-0.38-0.09-0.58-0.42-0.48-0.84
		l0.86-3.88l1.56-7.04l0.03-0.2L4.78,1.32C4.31,1.3,4.01,1.05,4.01,0.67C4,0.27,4.31,0.01,4.8,0h3.28h10.94c0.12,0,0.23,0,0.35,0.01
		c0.37,0.04,0.64,0.32,0.62,0.67c-0.01,0.34-0.26,0.6-0.62,0.63C19.26,1.33,19.14,1.33,18.95,1.34z"/>
	<path fill-rule="evenodd" clip-rule="evenodd" fill="#444444" d="M32.01,30.02c0.01,1.2,0.81,2,2.02,1.99
		c1.17,0,1.99-0.82,1.99-1.98c0-1.22-0.82-2.05-2.03-2.04C32.79,28.01,32,28.82,32.01,30.02z M30.69,30.02
		c-0.01-1.75,1.54-3.32,3.3-3.35c1.72-0.02,3.33,1.57,3.35,3.31c0.02,1.72-1.59,3.35-3.31,3.36C32.28,33.34,30.7,31.77,30.69,30.02z
		"/>
	<path fill-rule="evenodd" clip-rule="evenodd" fill="#444444" d="M9.95,29.34c1.93,0.03,3.35-1.34,3.4-3.26
		c0.04-1.94-1.36-3.4-3.32-3.43c-1.9-0.02-3.34,1.39-3.38,3.29C6.62,27.87,8.01,29.31,9.95,29.34z M10.02,21.34
		c2.45-0.01,4.65,2.21,4.65,4.69c0,2.43-2.19,4.62-4.63,4.64c-2.48,0.01-4.7-2.18-4.7-4.64C5.33,23.53,7.51,21.35,10.02,21.34z"/>
</g>
</svg>
