<?xml version="1.0" encoding="utf-8"?>
<!-- Generator: Adobe Illustrator 16.0.0, SVG Export Plug-In . SVG Version: 6.00 Build 0)  -->
<!DOCTYPE svg PUBLIC "-//W3C//DTD SVG 1.1//EN" "http://www.w3.org/Graphics/SVG/1.1/DTD/svg11.dtd">
<svg version="1.1" id="Layer_1" xmlns="http://www.w3.org/2000/svg" xmlns:xlink="http://www.w3.org/1999/xlink" x="0px" y="0px"
	 width="40px" height="32px" viewBox="0 0 40 32" enable-background="new 0 0 40 32" xml:space="preserve">
<g>
	<path fill-rule="evenodd" clip-rule="evenodd" fill="#444444" d="M18.42,30.47v-7.56H7.72v7.56H18.42z M10.72,14.84V8.77
		c-0.21,0.1-0.35,0.17-0.49,0.25c-2.21,1.25-4.4,2.51-6.62,3.73c-0.42,0.24-0.57,0.49-0.57,0.97c0.02,5.26,0.02,10.51,0.02,15.77
		c0,0.98-0.01,0.99,0.96,0.99c0.69,0.01,1.37,0.01,2.1,0.01v-9.14h13.87v9.11c0.18,0.01,0.33,0.03,0.48,0.03
		c5.35,0,10.7-0.01,16.05,0c0.32,0,0.41-0.09,0.41-0.4c-0.01-5.29,0-10.58-0.01-15.86c0-0.16-0.01-0.32-0.02-0.53H21.51V8.74
		L10.72,14.84z M40,30.48V32H0v-1.51h1.5v-0.56c0-5.76,0-11.52-0.01-17.29c0-0.34,0.11-0.52,0.41-0.69
		c3.33-1.87,6.65-3.76,9.97-5.64c0.12-0.06,0.24-0.12,0.43-0.21v6.07l10.75-6.08v6.08h15.43v18.31H40z"/>
	<polygon fill-rule="evenodd" clip-rule="evenodd" fill="#444444" points="26.15,1.52 26.15,0 36.91,0 36.91,1.52 35.41,1.52 
		35.41,10.65 33.84,10.65 33.84,1.56 29.25,1.56 29.25,10.65 27.67,10.65 27.67,1.52 	"/>
	<path fill-rule="evenodd" clip-rule="evenodd" fill="#444444" d="M15.38,1.53h-1.53V0h10.72v1.53h-1.5c0,0.83-0.02,1.61,0.01,2.4
		c0,0.3-0.08,0.49-0.37,0.62c-0.38,0.19-0.75,0.42-1.19,0.67V1.56h-4.6v0.47c0,1.8-0.01,3.6,0,5.4c0.01,0.3-0.08,0.47-0.35,0.59
		c-0.38,0.19-0.75,0.42-1.19,0.67V1.53z"/>
	<rect x="29.23" y="22.88" fill-rule="evenodd" clip-rule="evenodd" fill="#444444" width="4.6" height="1.5"/>
	<rect x="23.09" y="22.88" fill-rule="evenodd" clip-rule="evenodd" fill="#444444" width="4.58" height="1.5"/>
	<rect x="29.24" y="19.84" fill-rule="evenodd" clip-rule="evenodd" fill="#444444" width="4.6" height="1.48"/>
	<rect x="23.09" y="19.82" fill-rule="evenodd" clip-rule="evenodd" fill="#444444" width="4.57" height="1.5"/>
</g>
</svg>
