<?xml version="1.0" encoding="utf-8"?>
<!-- Generator: Adobe Illustrator 16.0.0, SVG Export Plug-In . SVG Version: 6.00 Build 0)  -->
<!DOCTYPE svg PUBLIC "-//W3C//DTD SVG 1.1//EN" "http://www.w3.org/Graphics/SVG/1.1/DTD/svg11.dtd">
<svg version="1.1" id="Layer_1" xmlns="http://www.w3.org/2000/svg" xmlns:xlink="http://www.w3.org/1999/xlink" x="0px" y="0px"
	 width="66px" height="65px" viewBox="0 0 66 65" enable-background="new 0 0 66 65" xml:space="preserve">
<g>
	
		<path fill-rule="evenodd" clip-rule="evenodd" fill="#444444" stroke="#444444" stroke-width="0.7087" stroke-linecap="round" stroke-linejoin="round" stroke-miterlimit="10" d="
		M24.9,43.55v7.64l-0.01,11.18c0,0.13,0.01,0.26-0.01,0.38c-0.05,0.49-0.34,0.79-0.83,0.77c-0.49-0.03-0.76-0.33-0.75-0.84
		l-0.01-4.52v-24.89v-0.25c-0.01-0.52,0.2-0.85,0.76-0.9c0.5-0.03,0.82,0.28,0.84,0.89c0.02,1.25,0.01,2.51,0.01,3.77v5.13
		c1.06,0,2.08,0.1,3.08-0.03c1.36-0.17,2.33-1.38,2.33-2.74c0.01-5.2,0.01-10.39,0-15.59c0-1.87-1.36-3.24-3.28-3.32
		c-0.91-0.04-1.83-0.04-2.74,0.01c-0.24,0.02-0.55,0.27-0.69,0.5c-1.95,3.21-3.88,6.44-5.82,9.66c-0.72,1.2-1.71,1.2-2.43,0.01
		c-1.94-3.24-3.9-6.48-5.83-9.73c-0.21-0.35-0.45-0.48-0.86-0.47c-1.02,0.03-2.04,0-3.06,0.02c-2.14,0.05-3.48,1.4-3.48,3.51
		c-0.01,5.11-0.01,10.23,0,15.34c0,1.63,1.25,2.85,2.9,2.86c0.75,0.01,1.49,0,2.29,0c0.02-0.2,0.04-0.38,0.04-0.56v-8.17
		c0.01-0.78,0.25-1.09,0.82-1.09c0.55,0.01,0.8,0.34,0.8,1.12V49.9v10.43c0,0.91-0.19,1.22-0.74,1.22c-0.56,0-0.77-0.32-0.77-1.24
		v-15.84v-1.03H5.34c-2.98,0.02-4.83-1.79-4.84-4.71c0-4.96,0-9.93,0.01-14.89c0-2.5,1.38-4.35,3.7-4.94
		c0.49-0.12,1.01-0.15,1.52-0.16c1.08-0.02,2.17,0.03,3.25-0.01c0.76-0.03,1.26,0.23,1.65,0.9c1.82,3.1,3.68,6.17,5.53,9.25
		l0.39,0.64c0.15-0.23,0.27-0.39,0.37-0.57c1.87-3.11,3.76-6.22,5.6-9.35c0.37-0.63,0.83-0.89,1.54-0.87
		c1.13,0.03,2.26-0.03,3.38,0.05c2.51,0.19,4.37,2.15,4.38,4.63c0.02,5.3,0.03,10.6,0,15.9c-0.01,2.29-2.01,4.2-4.35,4.24
		C26.64,43.561,25.82,43.55,24.9,43.55z"/>
	
		<path fill-rule="evenodd" clip-rule="evenodd" fill="#444444" stroke="#444444" stroke-width="0.7087" stroke-linecap="round" stroke-linejoin="round" stroke-miterlimit="10" d="
		M58.48,41.94c0.98,0,1.9,0.04,2.81-0.01c1.39-0.08,2.57-1.3,2.58-2.73c0.02-5.24,0.02-10.48-0.01-15.71
		c-0.01-1.88-1.43-3.22-3.34-3.27c-0.82-0.02-1.65,0.03-2.48-0.01c-0.45-0.02-0.69,0.15-0.9,0.52c-1.93,3.23-3.91,6.43-5.78,9.68
		c-0.67,1.17-1.92,0.99-2.48,0.02c-1.88-3.28-3.87-6.49-5.81-9.74c-0.21-0.35-0.43-0.49-0.85-0.48c-1,0.03-2,0-3,0.01
		c-2.31,0.03-3.64,1.34-3.65,3.61c-0.02,3.08-0.01,6.16,0,9.23c0,1.91,0,3.82,0,5.72c-0.01,2.01,1.15,3.16,3.18,3.16h2.26v-0.82
		c0-2.64-0.01-5.28,0.02-7.92c0-0.33,0.15-0.77,0.4-0.96c0.5-0.4,1.14,0.02,1.16,0.72c0.02,1.21,0.01,2.43,0.01,3.64l-0.01,23.57
		c0,0.21,0.01,0.42,0,0.62c-0.04,0.51-0.31,0.78-0.83,0.76c-0.48-0.02-0.74-0.3-0.74-0.77c-0.02-0.92-0.01-1.84-0.01-2.76V44.13
		c0-0.16-0.01-0.33-0.02-0.58h-2.3c-2.71,0-4.62-1.87-4.63-4.54c-0.01-5.05-0.01-10.1,0-15.15c0.01-2.95,2.11-5.02,5.09-5.03
		c1.19-0.01,2.39,0.01,3.58-0.01c0.61-0.01,1.03,0.22,1.35,0.75c1.86,3.1,3.74,6.18,5.61,9.27c0.13,0.21,0.26,0.42,0.44,0.69
		l3.57-5.95c0.83-1.38,1.63-2.79,2.52-4.14c0.2-0.32,0.67-0.64,1.04-0.67c1.2-0.08,2.43-0.1,3.63,0c2.73,0.22,4.56,2.18,4.58,4.94
		c0.04,5.15,0.04,10.3,0,15.46c-0.02,2.55-1.99,4.38-4.59,4.38h-2.35v2.13v16.78c0,0.83-0.47,1.26-1.09,1
		c-0.46-0.19-0.5-0.57-0.5-0.99v-7.29V33.44c0-0.23-0.06-0.5,0.04-0.68c0.12-0.25,0.39-0.61,0.57-0.6c0.29,0.03,0.68,0.26,0.81,0.51
		c0.15,0.31,0.09,0.73,0.09,1.11v7.79C58.45,41.67,58.47,41.771,58.48,41.94z"/>
	
		<path fill-rule="evenodd" clip-rule="evenodd" fill="#444444" stroke="#444444" stroke-width="0.7087" stroke-linecap="round" stroke-linejoin="round" stroke-miterlimit="10" d="
		M50.44,2.081c-3.57,0-6.51,2.9-6.54,6.5c-0.04,3.61,2.89,6.57,6.51,6.57c3.56,0,6.52-2.96,6.53-6.53
		C56.95,5.021,54.04,2.09,50.44,2.081z M42.39,8.46c0.06-4.43,3.66-7.99,8.06-7.96c4.41,0.03,8.03,3.66,8,8.02
		c-0.04,4.51-3.68,8.06-8.21,8.01C45.86,16.491,42.34,12.86,42.39,8.46z"/>
	
		<path fill-rule="evenodd" clip-rule="evenodd" fill="#444444" stroke="#444444" stroke-width="0.7087" stroke-linecap="round" stroke-linejoin="round" stroke-miterlimit="10" d="
		M16.86,2.081c-3.59,0.02-6.5,2.94-6.51,6.54c-0.01,3.6,2.9,6.52,6.51,6.53c3.55,0,6.54-2.99,6.52-6.54
		C23.37,4.991,20.44,2.061,16.86,2.081z M24.89,8.541c0.01,4.34-3.62,7.98-7.98,7.99c-4.45,0.02-8.05-3.56-8.07-8.01
		c-0.01-4.4,3.55-7.97,8-8.02C21.24,0.46,24.87,4.09,24.89,8.541z"/>
	
		<path fill-rule="evenodd" clip-rule="evenodd" fill="#444444" stroke="#444444" stroke-width="0.7087" stroke-linecap="round" stroke-linejoin="round" stroke-miterlimit="10" d="
		M18.22,58.291c-0.01-1.64,0-3.27-0.01-4.9c-0.01-1.19-0.76-1.95-1.86-1.94c-1.17,0.02-1.86,0.73-1.86,1.94v8.04v0.44
		c-0.01,0.53-0.35,0.76-0.82,0.78c-0.46,0.01-0.78-0.26-0.78-0.73c-0.01-2.97-0.07-5.95,0.03-8.92c0.05-1.64,1.22-2.76,2.76-3
		c1.57-0.25,3.11,0.56,3.77,2.07c0.23,0.52,0.37,1.12,0.38,1.69c0.03,3.23,0.02,6.45,0.01,9.68c0,0.68-0.29,1.06-0.8,1.06
		c-0.51,0-0.82-0.38-0.82-1.06C18.21,61.721,18.22,60.01,18.22,58.291z"/>
	
		<path fill-rule="evenodd" clip-rule="evenodd" fill="#444444" stroke="#444444" stroke-width="0.7087" stroke-linecap="round" stroke-linejoin="round" stroke-miterlimit="10" d="
		M53.28,58.471v5.03c0,0.64-0.28,0.99-0.78,1c-0.5,0-0.81-0.34-0.81-0.99c-0.01-3.23-0.01-6.45-0.01-9.68c0-0.29,0-0.59-0.04-0.88
		c-0.13-0.85-0.83-1.46-1.7-1.49c-1-0.05-1.74,0.47-1.93,1.37c-0.06,0.26-0.07,0.53-0.07,0.8c0,2.68,0,5.36,0,8.05
		c0,0.4-0.05,0.74-0.5,0.91c-0.57,0.21-1.07-0.1-1.08-0.74c-0.02-1.25-0.01-2.51-0.01-3.76v-4.65c0.01-2.05,1.34-3.45,3.29-3.48
		c1.92-0.02,3.6,1.57,3.64,3.49C53.31,55.121,53.28,56.8,53.28,58.471z"/>
	
		<path fill-rule="evenodd" clip-rule="evenodd" fill="#444444" stroke="#444444" stroke-width="0.7087" stroke-linecap="round" stroke-linejoin="round" stroke-miterlimit="10" d="
		M50.84,21.431c0,0.56,0.01,1.13-0.01,1.69c-0.01,0.56-0.36,0.96-0.83,0.91c-0.51-0.05-0.79-0.36-0.79-0.88c0-1.17-0.01-2.34,0-3.51
		c0.01-0.52,0.29-0.86,0.81-0.88c0.54-0.02,0.79,0.35,0.81,0.85c0.02,0.6,0,1.21,0,1.82H50.84z"/>
	
		<path fill-rule="evenodd" clip-rule="evenodd" fill="#444444" stroke="#444444" stroke-width="0.7087" stroke-linecap="round" stroke-linejoin="round" stroke-miterlimit="10" d="
		M15.77,21.38v-1.82c0.01-0.45,0.22-0.78,0.7-0.8c0.48-0.02,0.78,0.29,0.79,0.73c0.03,1.27,0.03,2.55,0,3.82
		c-0.01,0.45-0.35,0.73-0.81,0.71c-0.44-0.02-0.67-0.33-0.67-0.76C15.76,22.63,15.77,22,15.77,21.38z"/>
</g>
</svg>
