<?xml version="1.0" encoding="utf-8"?>
<!-- Generator: Adobe Illustrator 16.0.0, SVG Export Plug-In . SVG Version: 6.00 Build 0)  -->
<!DOCTYPE svg PUBLIC "-//W3C//DTD SVG 1.1//EN" "http://www.w3.org/Graphics/SVG/1.1/DTD/svg11.dtd">
<svg version="1.1" id="Layer_1" xmlns="http://www.w3.org/2000/svg" xmlns:xlink="http://www.w3.org/1999/xlink" x="0px" y="0px"
	 width="40px" height="29.004px" viewBox="0 0 40 29.004" enable-background="new 0 0 40 29.004" xml:space="preserve">
<g>
	<path fill-rule="evenodd" clip-rule="evenodd" fill="#444444" d="M8.78,22.12l0.95,2.01h1.28l0.95-2.01H8.78z M19.37,24.13h8.17
		l0.95-2H18.42L19.37,24.13z M38.2,15.9c0.01-0.05,0.02-0.08,0.01-0.1c-0.63-1.52-1.25-3.05-1.9-4.57
		c-0.04-0.09-0.21-0.17-0.32-0.17c-0.74-0.01-1.49-0.01-2.23-0.01h-1.3v4.85H38.2z M31.73,27.6c1.54-0.02,2.75-1.24,2.74-2.77
		c0-1.51-1.27-2.75-2.8-2.73c-1.52,0.01-2.69,1.26-2.68,2.86C29,26.41,30.25,27.61,31.73,27.6z M17.93,24.86
		c0-1.55-1.23-2.77-2.79-2.76c-1.45,0-2.7,1.26-2.7,2.73c-0.01,1.53,1.21,2.76,2.74,2.77C16.71,27.6,17.93,26.39,17.93,24.86z
		 M5.55,27.6c1.48,0.01,2.73-1.21,2.74-2.67c0.01-1.58-1.19-2.82-2.72-2.83c-1.5-0.01-2.75,1.21-2.76,2.7
		C2.8,26.37,3.99,27.58,5.55,27.6z M32.45,20.75c1.81,0.44,2.93,1.57,3.36,3.37h2.77v-6.78h-6.13V20.75z M31.03,20.68v-0.55v-9.44
		c0-0.86,0.18-1.03,1.06-1.04h3.16c0.13,0,0.25-0.01,0.38-0.02c-0.14-0.46-0.29-0.82-0.79-1c-2.32-0.86-4.63-1.77-6.94-2.66
		c-0.09-0.04-0.19-0.05-0.28-0.08v14.79H31.03z M0,21.32c0.17-0.47,0.5-0.63,1-0.63c5.91,0.01,11.82,0.01,17.74,0.01h0.55v-0.66
		c-0.21,0-0.41,0.01-0.61,0c-0.45-0.03-0.75-0.33-0.74-0.71c0-0.4,0.29-0.68,0.74-0.68c0.9-0.01,1.8-0.01,2.7,0
		c0.41,0,0.67,0.26,0.7,0.64c0.03,0.37-0.24,0.69-0.65,0.74c-0.22,0.02-0.44,0-0.69,0v0.64h5.46v-0.4L26.19,5.19l0.01-0.23
		c0.01-0.67,0.45-0.97,1.08-0.72l6,2.31c0.88,0.34,1.76,0.69,2.65,1.02c0.31,0.11,0.5,0.29,0.63,0.59c1.1,2.66,2.2,5.32,3.3,7.98
		c0.09,0.21,0.13,0.45,0.13,0.68C40,19.41,40,22.01,40,24.61c0,0.71-0.23,0.94-0.93,0.94h-3.23c-0.96,2.53-2.3,3.57-4.46,3.43
		c-1.39-0.08-3.2-1-3.75-3.41h-8.36c-0.21,1.01-0.68,1.86-1.48,2.5c-2.36,1.9-5.85,0.74-6.6-2.19c-0.07-0.27-0.17-0.36-0.44-0.34
		c-0.36,0.03-0.73,0.01-1.1,0.01C9.17,27.49,7.99,28.73,6,28.97c-1.7,0.2-3.08-0.49-3.97-1.96c-1.01-1.67-0.79-3.31,0.4-4.91
		c-0.49,0-0.94-0.03-1.39,0.01C0.56,22.14,0.21,21.99,0,21.55V21.32z"/>
	<path fill-rule="evenodd" clip-rule="evenodd" fill="#444444" d="M0,0.63C0.15,0.15,0.48,0,0.98,0c7.64,0.01,15.29,0.01,22.94,0.01
		c0.71,0,0.93,0.22,0.93,0.93v16.14c0,0.63-0.25,0.87-0.88,0.87c-7.68,0-15.37,0-23.05,0.01c-0.46,0-0.73-0.18-0.92-0.56v-0.23
		c0.19-0.49,0.54-0.62,1.04-0.62c7.35,0.01,14.69,0,22.04,0.01h0.34V1.4h-0.5c-7.29,0-14.58,0-21.88,0.01
		c-0.5,0-0.86-0.14-1.04-0.62V0.63z"/>
</g>
</svg>
