<?xml version="1.0" encoding="utf-8"?>
<!-- Generator: Adobe Illustrator 16.0.0, SVG Export Plug-In . SVG Version: 6.00 Build 0)  -->
<!DOCTYPE svg PUBLIC "-//W3C//DTD SVG 1.1//EN" "http://www.w3.org/Graphics/SVG/1.1/DTD/svg11.dtd">
<svg version="1.1" id="Layer_1" xmlns="http://www.w3.org/2000/svg" xmlns:xlink="http://www.w3.org/1999/xlink" x="0px" y="0px"
	 width="20px" height="20px" viewBox="4 0 20 20" enable-background="new 4 0 20 20" xml:space="preserve">
<g>
	<path fill="#FFFFFF" d="M10,15H7V5h3V15z M21,15h-3V9.658c0-1.392-0.496-2.085-1.479-2.085c-0.779,0-1.273,0.388-1.521,1.165
		C15,10,15,15,15,15h-3c0,0,0.04-9,0-10h2.368l0.183,2h0.062c0.615-1,1.598-1.678,2.945-1.678c1.025,0,1.854,0.285,2.487,1.001
		C20.684,7.04,21,8.002,21,9.354V15z"/>
</g>
<g>
	<ellipse fill="#FFFFFF" cx="14" cy="10" rx="1.55" ry="1.5"/>
</g>
</svg>
