<?xml version="1.0" encoding="utf-8"?>
<!-- Generator: Adobe Illustrator 16.0.0, SVG Export Plug-In . SVG Version: 6.00 Build 0)  -->
<!DOCTYPE svg PUBLIC "-//W3C//DTD SVG 1.1//EN" "http://www.w3.org/Graphics/SVG/1.1/DTD/svg11.dtd">
<svg version="1.1" id="Layer_1" xmlns="http://www.w3.org/2000/svg" xmlns:xlink="http://www.w3.org/1999/xlink" x="0px" y="0px"
	 width="24px" height="24px" viewBox="0 0 24 24" enable-background="new 0 0 24 24" xml:space="preserve">
<path fill="#FFFFFF" d="M12,8c0.6,0,1-0.4,1-1V1c0-0.6-0.4-1-1-1H6C2,0,0.9,4,0.9,4C0.3,6.6,0,9.2,0,12s0.3,5.4,0.9,8
	c0,0,1.1,4,5.1,4h6c0.6,0,1-0.4,1-1v-6c0-0.6-0.4-1-1-1H8.3C8.1,14.7,8,13.4,8,12c0-1.4,0.1-2.7,0.3-4H12z M11,2v4H9V2H11z M11,18v4
	H9v-4H11z M6.5,6C6.2,7.9,6,10,6,12s0.2,4.1,0.5,6H8v4H6c-2.4,0-3.2-3-3.2-3C2.3,16.7,2,14.4,2,12c0-2.4,0.3-4.7,0.8-7
	c0,0,0.8-3,3.2-3h2v4H6.5z"/>
</svg>
