<?xml version="1.0" encoding="utf-8"?>
<!-- Generator: Adobe Illustrator 16.0.0, SVG Export Plug-In . SVG Version: 6.00 Build 0)  -->
<!DOCTYPE svg PUBLIC "-//W3C//DTD SVG 1.1//EN" "http://www.w3.org/Graphics/SVG/1.1/DTD/svg11.dtd">
<svg version="1.1" id="Layer_1" xmlns="http://www.w3.org/2000/svg" xmlns:xlink="http://www.w3.org/1999/xlink" x="0px" y="0px"
	 width="39.996px" height="40px" viewBox="0 0 39.996 40" enable-background="new 0 0 39.996 40" xml:space="preserve">
<g>
	<path fill-rule="evenodd" clip-rule="evenodd" fill="#444444" d="M34.139,16.669c-0.31,0-0.6-0.02-0.88,0
		c-0.13,0.01-0.35,0.08-0.36,0.14c-0.02,0.18-0.04,0.47,0.08,0.56c0.34,0.27,0.75,0.46,1.16,0.7V16.669z M7.099,16.7h-1.22v1.31
		l0.1,0.05C6.299,17.569,7.309,17.729,7.099,16.7z M27.129,12.85c-0.15,1.13-0.05,1.29,1.02,1.72c0.4-0.53,0.14-1.13,0.22-1.72
		H27.129z M11.839,14.569c1.04-0.36,1.22-0.67,1.02-1.71h-1.23C11.719,13.45,11.459,14.04,11.839,14.569z M38.659,24.27v-0.68
		c0-0.46,0.15-1.02-0.06-1.37c-0.21-0.37-0.76-0.54-1.18-0.78l-14.38-8.26c-0.21-0.13-0.39-0.24-0.39-0.55
		c-0.04-1.54-0.07-3.07-0.19-4.59c-0.13-1.68-0.38-3.34-0.96-4.92c-0.15-0.41-0.34-0.81-0.58-1.17c-0.57-0.89-1.26-0.88-1.85,0.01
		c-0.15,0.23-0.29,0.47-0.39,0.73c-0.19,0.52-0.39,1.04-0.53,1.57c-0.66,2.68-0.81,5.42-0.79,8.16c0,0.38-0.1,0.6-0.45,0.8
		c-1.47,0.81-2.92,1.67-4.37,2.5c-3.62,2.08-7.23,4.16-10.84,6.24c-0.15,0.08-0.33,0.25-0.34,0.38c-0.04,0.63-0.02,1.25-0.02,1.92
		c0.19-0.05,0.33-0.09,0.46-0.13l10.41-3.44c0.23-0.08,0.48-0.13,0.73-0.13c1.32-0.01,2.64-0.01,3.95,0c0.15,0,0.29,0.01,0.43,0.02
		l0.03,0.21c0.06,2,0.04,4,0.2,5.99c0.19,2.26,0.52,4.51,0.82,6.77c0.04,0.29-0.01,0.44-0.25,0.6c-1.46,0.98-2.89,2-4.36,2.96
		c-0.4,0.27-0.54,0.55-0.41,1c0.05,0,0.1,0,0.14-0.01c1.87-0.68,3.74-1.36,5.61-2.02c0.26-0.1,0.26-0.26,0.26-0.48v-3.33
		c0-0.15,0.02-0.3,0.03-0.44h1.26v0.55c0,1.07,0.01,2.14-0.01,3.2c-0.01,0.3,0.09,0.43,0.37,0.53c1.33,0.47,2.64,0.96,3.96,1.43
		l1.68,0.6c0.15-0.5-0.02-0.78-0.42-1.04c-1.47-0.97-2.91-1.97-4.35-2.97c-0.13-0.1-0.28-0.33-0.25-0.47
		c0.68-3.54,0.92-7.11,1.02-10.7c0.02-0.79,0-1.57,0-2.37c0.14-0.02,0.22-0.03,0.31-0.03c1.4-0.01,2.81-0.01,4.22,0
		c0.17,0,0.35,0.04,0.51,0.1l6.29,2.07L38.659,24.27z M25.799,13.27v-1.7h3.88c-0.13,1.23,0.26,2.49-0.38,3.72l2.28,1.31v-1.19h3.88
		c0,0.56,0.01,1.11,0,1.66c-0.02,0.55-0.05,1.1-0.08,1.71c1.1,0.63,2.23,1.37,3.44,1.95c0.92,0.44,1.26,1,1.16,2.02
		c-0.1,1.06-0.02,2.15-0.02,3.3l-1.95-0.63c-3.37-1.11-6.74-2.24-10.11-3.34c-0.47-0.15-0.97-0.21-1.46-0.23
		c-0.8-0.04-1.61-0.01-2.45-0.01c-0.01,0.14-0.03,0.25-0.04,0.36c-0.05,3.59-0.27,7.17-0.88,10.72c-0.06,0.34,0.04,0.51,0.32,0.7
		c1.42,0.95,2.82,1.93,4.24,2.89c0.26,0.17,0.38,0.35,0.37,0.67c-0.02,0.91-0.01,1.83-0.01,2.82l-7.33-2.65v1.67h-1.27v-1.68
		L12.019,40c0-1.08-0.01-2.1,0.01-3.11c0-0.12,0.18-0.26,0.3-0.34c1.45-1,2.89-1.99,4.35-2.97c0.24-0.17,0.31-0.31,0.26-0.6
		c-0.61-3.58-0.84-7.19-0.89-10.81l-0.01-0.33h-0.96c-0.63,0-1.26-0.01-1.89,0c-0.24,0.01-0.49,0.05-0.73,0.12l-11.82,3.91
		c-0.18,0.06-0.36,0.11-0.6,0.17c0-1.09,0.09-2.15-0.02-3.18c-0.11-1.09,0.25-1.72,1.26-2.18c1.18-0.55,2.27-1.28,3.34-1.89v-3.38
		h3.79v1.2l2.3-1.32c-0.65-1.2-0.25-2.46-0.39-3.72h3.87v1.71c0.64-0.37,1.21-0.67,1.74-1.02c0.1-0.07,0.12-0.31,0.12-0.47
		c0.04-2.42,0.19-4.84,0.71-7.22c0.27-1.27,0.62-2.51,1.44-3.58c0.99-1.28,2.5-1.33,3.55-0.08c0.78,0.95,1.13,2.1,1.41,3.26
		c0.59,2.5,0.75,5.05,0.78,7.6c0.01,0.34,0.11,0.53,0.41,0.68C24.819,12.68,25.259,12.959,25.799,13.27z"/>
</g>
</svg>
