<?xml version="1.0" encoding="utf-8"?>
<!-- Generator: Adobe Illustrator 16.0.0, SVG Export Plug-In . SVG Version: 6.00 Build 0)  -->
<!DOCTYPE svg PUBLIC "-//W3C//DTD SVG 1.1//EN" "http://www.w3.org/Graphics/SVG/1.1/DTD/svg11.dtd">
<svg version="1.1" id="Layer_1" xmlns="http://www.w3.org/2000/svg" xmlns:xlink="http://www.w3.org/1999/xlink" x="0px" y="0px"
	 width="39.999px" height="31.999px" viewBox="0 0 39.999 31.999" enable-background="new 0 0 39.999 31.999" xml:space="preserve">
<g>
	<path fill-rule="evenodd" clip-rule="evenodd" fill="#444444" stroke="#444444" stroke-width="0.4252" stroke-miterlimit="10" d="
		M2.072,24.625h4.353v-1.093h-4.44L2.072,24.625z M38.16,23.562h-4.245l0.078,1.132h4.06L38.16,23.562z M22.672,1.37h-5.016
		c0.624,0.957,1.425,1.708,2.381,2.284c0.068,0.039,0.195,0.02,0.264-0.02C21.258,3.059,22.048,2.316,22.672,1.37z M14.895,1.731
		l1.98,4.001l2.508-1.464c-1.151-0.741-2.03-1.668-2.703-2.791c-0.039-0.069-0.166-0.156-0.234-0.137
		C15.939,1.448,15.432,1.595,14.895,1.731z M25.454,1.731c-0.478-0.127-0.908-0.225-1.327-0.351c-0.263-0.088-0.4-0.039-0.546,0.205
		c-0.595,0.986-1.386,1.806-2.322,2.469c-0.088,0.069-0.176,0.137-0.283,0.225l2.498,1.454L25.454,1.731z M38.218,22.703
		c0.029-0.322,0.068-0.615,0.088-0.908c0.156-2.098,0.312-4.196,0.468-6.304c0.029-0.458,0.098-0.908-0.186-1.346
		c-1.805-2.879-3.601-5.758-5.396-8.637c-0.088-0.146-0.205-0.303-0.352-0.381c-0.595-0.292-1.21-0.556-1.834-0.839l-0.098,0.205
		c-0.732,1.923-1.093,3.903-0.771,5.953c0.088,0.615,0.312,1.21,0.507,1.795c0.108,0.293,0.342,0.459,0.703,0.39
		c0.42-0.078,0.849-0.117,1.317-0.186v-0.604l0.01-2.479c0-0.283,0.127-0.479,0.429-0.469c0.283,0.01,0.41,0.195,0.42,0.488
		c0.078,3.298,0.156,6.606,0.244,9.915c0.03,1.132,0.088,2.254,0.127,3.406H38.218z M6.522,22.722l0.02-0.205L6.785,9.519
		c0-0.283,0.01-0.556,0.39-0.566c0.4-0.02,0.459,0.254,0.459,0.557v2.167c-0.01,0.79-0.01,0.79,0.751,0.917l0.244,0.039
		c0.81,0.078,0.946,0,1.22-0.771c0.039-0.097,0.068-0.195,0.097-0.302c0.361-1.347,0.42-2.713,0.225-4.079
		c-0.156-1.074-0.419-2.108-0.859-3.152C8.737,4.581,8.181,4.815,7.644,5.088C7.419,5.205,7.195,5.391,7.068,5.595
		c-1.806,2.86-3.601,5.729-5.377,8.608c-0.126,0.214-0.195,0.507-0.186,0.751c0.098,1.941,0.225,3.884,0.342,5.826
		c0.049,0.644,0.098,1.288,0.146,1.942H6.522z M18.33,30.793V5.859l-1.259,0.722c-0.469,0.264-0.654,0.215-0.898-0.263
		c-0.507-1.015-1.015-2.03-1.522-3.045L14.124,2.19l-4.03,1.776c0,0.068-0.01,0.098,0,0.117l0.117,0.342
		c0.791,2.146,1.103,4.333,0.693,6.597c-0.146,0.791-0.322,1.581-0.937,2.167c-0.224,0.205-0.303,0.39-0.303,0.673
		c0.01,5.484,0.01,10.969,0.01,16.443v0.488H18.33z M30.606,30.773v-2.147V13.773c0-0.146-0.039-0.352-0.137-0.419
		c-0.507-0.381-0.732-0.928-0.888-1.483c-0.468-1.591-0.556-3.211-0.214-4.831c0.214-1.024,0.507-2.029,0.781-3.083L26.186,2.19
		L26,2.551l-1.854,3.728c-0.273,0.537-0.429,0.576-0.947,0.283c-0.888-0.507-1.776-1.015-2.654-1.522
		c-0.225-0.137-0.42-0.273-0.693-0.068c-0.293,0.214-0.615,0.302-0.615,0.81c0.02,8.198,0.02,16.385,0.02,24.583v0.41H30.606z
		 M32.695,13.305l-1.201,0.156V13.9v17.019c0,0.586-0.087,0.693-0.615,0.693H9.527c-0.664,0-0.712-0.059-0.712-0.703V13.89v-0.429
		l-1.21-0.156c-0.039,0.946-0.068,1.883-0.098,2.811c-0.068,2.908-0.136,5.816-0.214,8.724c-0.01,0.556-0.088,0.625-0.645,0.625
		c-1.61,0-3.21,0-4.821,0c-0.39,0.01-0.546-0.146-0.576-0.537c-0.146-2.615-0.312-5.221-0.468-7.827
		c-0.039-0.625-0.078-1.259-0.147-1.874c-0.048-0.586,0.069-1.103,0.391-1.601c1.795-2.82,3.581-5.65,5.357-8.48
		c0.254-0.4,0.566-0.673,1.015-0.868c2.03-0.888,4.099-1.708,6.06-2.742c0.957-0.508,1.952-0.791,2.967-1.083
		c0.225-0.059,0.488-0.088,0.712-0.049c2.03,0.312,4.06,0.273,6.09,0c0.244-0.029,0.507,0.01,0.761,0.059
		c0.351,0.068,0.703,0.186,1.054,0.273c0.693,0.176,1.298,0.518,1.942,0.83c1.991,0.976,4.05,1.815,6.061,2.742
		c0.332,0.157,0.663,0.439,0.858,0.751c1.815,2.86,3.601,5.748,5.407,8.627c0.302,0.479,0.39,0.966,0.332,1.522
		c-0.146,1.483-0.253,2.977-0.371,4.469l-0.43,5.416c-0.029,0.303-0.195,0.42-0.478,0.42l-4.704,0.01
		c-0.371,0-0.527-0.176-0.537-0.546l-0.332-9.915C32.773,14.486,32.734,13.92,32.695,13.305z"/>
	<path fill-rule="evenodd" clip-rule="evenodd" fill="#444444" stroke="#444444" stroke-width="0.4252" stroke-miterlimit="10" d="
		M20.77,7.44c-0.185,0.126-0.352,0.322-0.546,0.342c-0.264,0.039-0.459-0.176-0.449-0.449c0.009-0.273,0.195-0.478,0.468-0.439
		c0.186,0.039,0.351,0.244,0.527,0.371V7.44z"/>
	<path fill-rule="evenodd" clip-rule="evenodd" fill="#444444" stroke="#444444" stroke-width="0.4252" stroke-miterlimit="10" d="
		M20.77,14.232c-0.176,0.127-0.341,0.322-0.527,0.361c-0.264,0.039-0.459-0.166-0.468-0.439c-0.01-0.273,0.175-0.488,0.449-0.449
		c0.195,0.029,0.361,0.224,0.537,0.341L20.77,14.232z"/>
	<path fill-rule="evenodd" clip-rule="evenodd" fill="#444444" stroke="#444444" stroke-width="0.4252" stroke-miterlimit="10" d="
		M20.77,21.024c-0.176,0.137-0.332,0.342-0.527,0.371c-0.264,0.049-0.459-0.156-0.468-0.429c-0.01-0.273,0.175-0.488,0.449-0.458
		c0.195,0.029,0.361,0.225,0.546,0.342V21.024z"/>
	<path fill-rule="evenodd" clip-rule="evenodd" fill="#444444" stroke="#444444" stroke-width="0.4252" stroke-miterlimit="10" d="
		M20.135,11.275c-0.117-0.176-0.322-0.332-0.352-0.518c-0.029-0.253,0.156-0.449,0.449-0.449c0.293,0.01,0.488,0.195,0.449,0.449
		c-0.02,0.186-0.225,0.342-0.351,0.518H20.135z"/>
	<path fill-rule="evenodd" clip-rule="evenodd" fill="#444444" stroke="#444444" stroke-width="0.4252" stroke-miterlimit="10" d="
		M20.135,18.087c-0.117-0.176-0.322-0.342-0.352-0.527c-0.029-0.254,0.166-0.449,0.459-0.439c0.292,0,0.488,0.195,0.449,0.449
		c-0.029,0.186-0.234,0.342-0.361,0.518H20.135z"/>
	<path fill-rule="evenodd" clip-rule="evenodd" fill="#444444" stroke="#444444" stroke-width="0.4252" stroke-miterlimit="10" d="
		M20.154,24.869c-0.126-0.166-0.341-0.312-0.371-0.498c-0.039-0.254,0.137-0.449,0.439-0.459c0.283-0.01,0.488,0.166,0.458,0.429
		c-0.02,0.186-0.214,0.352-0.332,0.527H20.154z"/>
	<path fill-rule="evenodd" clip-rule="evenodd" fill="#444444" stroke="#444444" stroke-width="0.4252" stroke-miterlimit="10" d="
		M20.73,27.621c-0.029,0.419-0.195,0.576-0.479,0.576c-0.273-0.009-0.449-0.176-0.438-0.459c0.009-0.282,0.195-0.478,0.458-0.429
		C20.457,27.338,20.624,27.533,20.73,27.621z"/>
</g>
</svg>
