<?xml version="1.0" encoding="utf-8"?>
<!-- Generator: Adobe Illustrator 16.0.0, SVG Export Plug-In . SVG Version: 6.00 Build 0)  -->
<!DOCTYPE svg PUBLIC "-//W3C//DTD SVG 1.1//EN" "http://www.w3.org/Graphics/SVG/1.1/DTD/svg11.dtd">
<svg version="1.1" id="Layer_1" xmlns="http://www.w3.org/2000/svg" xmlns:xlink="http://www.w3.org/1999/xlink" x="0px" y="0px"
	 width="40.001px" height="40px" viewBox="0 0 40.001 40" enable-background="new 0 0 40.001 40" xml:space="preserve">
<g>
	<path fill-rule="evenodd" clip-rule="evenodd" fill="#444444" d="M20.02,3.34c0.48,0.01,0.96-0.01,1.44,0.01
		c0.29,0.01,0.43-0.08,0.42-0.39c-0.02-0.33-0.02-0.65,0-0.98c0.01-0.26-0.08-0.37-0.36-0.37c-1.02,0.01-2.03,0.01-3.05,0
		c-0.23,0-0.33,0.07-0.33,0.31c0.01,0.37,0.01,0.73,0,1.1c-0.01,0.26,0.1,0.33,0.35,0.33C19,3.33,19.51,3.34,20.02,3.34z
		 M26.68,4.99H13.31v2.76c0,0.59,0,0.6,0.59,0.6h12.46c0.1,0,0.2-0.02,0.32-0.04V4.99z M30.01,9.99H10.02v4.69
		c0.15-0.04,0.26-0.06,0.37-0.09c2.99-0.92,5.99-1.84,8.97-2.77c0.43-0.13,0.83-0.14,1.26-0.01c2.8,0.88,5.61,1.73,8.42,2.59
		l0.97,0.29V9.99z M33.13,17.37l-0.32-0.11c-4.17-1.28-8.34-2.57-12.52-3.84c-0.19-0.06-0.44-0.04-0.63,0.02
		c-3.37,1.03-6.74,2.06-10.11,3.1L6.9,17.36c0.05,0.16,0.08,0.29,0.12,0.41l0.94,2.68c1.29,3.72,2.59,7.44,3.89,11.15
		c0.05,0.15,0.15,0.31,0.27,0.39c0.47,0.3,0.97,0.56,1.44,0.86c0.67,0.43,1.38,0.56,2.16,0.45c0.61-0.09,1.09-0.41,1.56-0.75
		c1.14-0.82,2.39-1.03,3.75-0.77c0.76,0.15,1.38,0.57,2.01,1c1.14,0.77,2.36,0.76,3.5,0c0.38-0.25,0.76-0.5,1.17-0.69
		c0.27-0.13,0.4-0.29,0.49-0.55l4.16-11.92L33.13,17.37z M0,32.25c0.4-0.75,1.07-0.6,1.71-0.5c0.75,0.11,1.4,0.46,2,0.92
		c0.75,0.56,1.57,0.81,2.5,0.61c0.33-0.08,0.68-0.2,0.96-0.39c0.9-0.6,1.79-1.16,2.97-1.18c-0.09-0.26-0.14-0.47-0.21-0.68
		l-4.8-13.77c-0.23-0.66-0.04-1.04,0.62-1.25c0.75-0.23,1.49-0.48,2.24-0.68c0.3-0.08,0.39-0.22,0.38-0.52c-0.01-1.81,0-3.62,0-5.43
		c0-0.8,0.24-1.03,1.05-1.03h2.27V5.77c0-0.52,0-1.04,0.01-1.56c0.01-0.58,0.31-0.86,0.88-0.86h3.44h0.5V1.07
		C16.52,0.28,16.8,0,17.61,0h4.88c0.7,0,1,0.3,1.01,1v2.35H24h3.36c0.66,0,0.95,0.25,0.96,0.9c0.02,1.2,0.01,2.4,0,3.6
		c0,0.5-0.01,0.5,0.48,0.5l1.92-0.01c0.64,0.01,0.93,0.3,0.93,0.93c0,1.8,0.02,3.6-0.01,5.39c-0.01,0.44,0.14,0.62,0.54,0.72
		c0.68,0.18,1.35,0.4,2.02,0.61c0.76,0.24,0.93,0.58,0.67,1.32l-4.51,12.96l-0.49,1.43c1.13,0.05,2,0.56,2.87,1.13
		c1.08,0.72,2.2,0.71,3.29,0c0.71-0.45,1.38-0.94,2.24-1.07c0.33-0.05,0.67-0.08,1-0.06C39.7,31.72,40,32.07,40,32.48
		c0,0.39-0.27,0.77-0.67,0.78c-0.97,0.01-1.72,0.49-2.5,0.98c-1.58,1-3.22,0.98-4.84,0.05c-0.21-0.12-0.41-0.27-0.61-0.41
		c-1.16-0.8-2.41-0.81-3.57-0.01c-0.67,0.47-1.35,0.89-2.17,1.02c-1.36,0.22-2.6-0.05-3.68-0.89c-0.87-0.68-1.84-0.89-2.87-0.56
		c-0.49,0.15-0.93,0.5-1.38,0.78c-1.64,1-3.29,1.01-4.94,0.04c-0.21-0.12-0.39-0.26-0.59-0.39c-1.16-0.79-2.38-0.81-3.53,0.01
		c-0.91,0.65-1.88,1.1-3.02,1.09c-0.94-0.01-1.81-0.24-2.57-0.79c-0.69-0.5-1.39-0.92-2.28-0.9C0.39,33.29,0.2,32.98,0,32.72V32.25z
		"/>
	<path fill-rule="evenodd" clip-rule="evenodd" fill="#444444" d="M0,37.25c0.4-0.75,1.07-0.6,1.71-0.5
		c0.73,0.11,1.35,0.49,1.98,0.88c0.44,0.28,0.93,0.52,1.43,0.65c0.81,0.21,1.57-0.01,2.25-0.5c0.59-0.43,1.21-0.83,1.94-0.98
		c1.36-0.29,2.62-0.08,3.79,0.72c0.48,0.32,1.01,0.6,1.56,0.75c0.83,0.23,1.62,0,2.32-0.52c0.75-0.55,1.56-0.97,2.52-1.05
		c1.17-0.1,2.23,0.16,3.21,0.84c0.44,0.3,0.94,0.58,1.45,0.72c0.89,0.25,1.7-0.03,2.47-0.53c0.58-0.37,1.19-0.74,1.84-0.91
		c1.32-0.35,2.59-0.12,3.76,0.67c0.45,0.31,0.95,0.61,1.47,0.76c0.88,0.26,1.73,0.04,2.48-0.5c0.61-0.44,1.25-0.85,2.01-0.98
		c0.31-0.05,0.62-0.08,0.93-0.09c0.51,0,0.85,0.31,0.88,0.76c0.02,0.44-0.3,0.83-0.79,0.84c-0.8,0.01-1.45,0.34-2.09,0.78
		c-1.78,1.23-3.7,1.23-5.49-0.01c-0.74-0.52-1.51-0.84-2.43-0.74c-0.6,0.07-1.09,0.33-1.56,0.68c-0.83,0.61-1.74,0.96-2.78,0.98
		c-1.09,0.01-2.07-0.3-2.91-0.98c-1.1-0.89-2.69-0.91-3.93,0c-1.86,1.36-3.83,1.34-5.67-0.02c-1.15-0.85-2.72-0.9-3.83-0.01
		c-1.73,1.36-4.08,1.33-5.79,0c-0.54-0.42-1.14-0.68-1.84-0.66C0.46,38.31,0.21,38.04,0,37.72V37.25z"/>
</g>
</svg>
