<?xml version="1.0" encoding="utf-8"?>
<!-- Generator: Adobe Illustrator 16.0.0, SVG Export Plug-In . SVG Version: 6.00 Build 0)  -->
<!DOCTYPE svg PUBLIC "-//W3C//DTD SVG 1.1//EN" "http://www.w3.org/Graphics/SVG/1.1/DTD/svg11.dtd">
<svg version="1.1" id="Layer_1" xmlns="http://www.w3.org/2000/svg" xmlns:xlink="http://www.w3.org/1999/xlink" x="0px" y="0px"
	 width="65.999px" height="56.997px" viewBox="0 0 65.999 56.997" enable-background="new 0 0 65.999 56.997" xml:space="preserve">
<g>
	<path fill-rule="evenodd" clip-rule="evenodd" fill="#444444" d="M16.52,39.477c-3.05,0-5.49,2.4-5.51,5.44
		c-0.01,3,2.45,5.48,5.47,5.49c3.01,0.02,5.48-2.43,5.5-5.46C22,41.937,19.55,39.477,16.52,39.477z M0,16.077
		c0.33-0.58,0.83-0.8,1.5-0.76c0.68,0.03,1.37,0.01,2.14,0.01c-0.15-1.09-0.29-2.12-0.45-3.15c-0.32-2.11-0.67-4.22-0.97-6.34
		c-0.4-2.87,2.23-5.79,5.23-5.82c2.43-0.03,4.85-0.01,7.28-0.01h27.78c1.17,0,1.49,0.31,1.49,1.48v43.02c0,1.19-0.34,1.54-1.52,1.54
		H24.95h-0.81c-0.44,2.36-1.63,4.22-3.69,5.47c-1.52,0.92-3.19,1.3-4.94,1.03c-4.01-0.64-6.76-3.82-6.73-7.71
		c0.03-3.7,2.86-6.97,6.52-7.5c3.89-0.57,7.94,1.76,8.88,6.47h17.55V2.217c-0.2-0.01-0.41-0.03-0.62-0.03H7.99
		c-1.96,0-3.45,1.2-3.54,2.99c-0.04,0.88,0.19,1.78,0.32,2.67c0.34,2.33,0.7,4.66,1.05,6.98c0.02,0.15,0.08,0.29,0.13,0.5h0.69
		c3.2,0,6.4,0,9.6-0.01c0.56,0,1.03,0.14,1.27,0.69c0.29,0.66-0.11,1.38-0.83,1.5c-0.21,0.03-0.43,0.03-0.64,0.03
		c-4.83,0-9.67,0-14.5,0.01c-0.65,0.01-1.17-0.14-1.54-0.69V16.077z"/>
	<path fill-rule="evenodd" clip-rule="evenodd" fill="#444444" d="M0,55.447c0.37-0.51,0.86-0.67,1.49-0.66
		c4.94,0.02,9.88,0.01,14.81,0.01c0.76,0,1.22,0.35,1.31,0.96c0.09,0.66-0.43,1.22-1.17,1.22c-1.18,0.01-2.37,0.01-3.55,0.01
		c-3.77,0-7.55-0.02-11.33,0.01c-0.65,0-1.16-0.14-1.56-0.65V55.447z"/>
	<path fill-rule="evenodd" clip-rule="evenodd" fill="#444444" d="M48.42,44.907c-0.01,3.03,2.43,5.49,5.46,5.5
		c2.99,0.02,5.49-2.46,5.51-5.46c0.02-2.97-2.44-5.45-5.41-5.47C50.87,39.457,48.43,41.847,48.42,44.907z M61.55,43.807h2.25v-0.7
		v-10.93c0-1.41-0.33-2.65-1.48-3.61c-0.8-0.67-1.39-1.75-2.29-2.11c-0.92-0.38-2.11-0.13-3.18-0.13c-2.99,0-5.97,0-8.96,0
		c-0.17,0-0.34,0.01-0.51,0c-0.72-0.05-1.19-0.5-1.21-1.1c-0.01-0.63,0.5-1.13,1.23-1.14c1.76-0.01,3.53-0.02,5.29,0.01
		c0.4,0,0.61-0.13,0.78-0.49c0.5-1.04,1.02-2.07,1.55-3.1c0.37-0.74,0.95-0.98,1.56-0.68c0.6,0.3,0.77,0.94,0.42,1.65
		c-0.4,0.82-0.81,1.64-1.26,2.54h3.53l-0.41-5.03c-0.19-2.31-0.42-4.61-0.58-6.92c-0.13-1.91-1.49-3.28-3.41-3.3
		c-2.49-0.02-4.98,0-7.48-0.01c-0.95,0-1.54-0.87-1.05-1.59c0.2-0.29,0.65-0.57,0.99-0.57c2.68-0.05,5.37-0.07,8.05-0.01
		c2.58,0.06,4.86,2.3,5.08,4.87c0.34,4.18,0.69,8.36,1.03,12.55c0.04,0.49,0.21,0.88,0.58,1.22c0.75,0.7,1.44,1.47,2.2,2.17
		c1.17,1.08,1.68,2.45,1.7,3.96c0.05,4.5,0.02,9.01,0.02,13.51c0,0.75-0.44,1.16-1.23,1.17c-1.07,0.01-2.14,0.01-3.2,0.01
		c-1.06,5.04-5.24,6.95-8.56,6.51c-3.99-0.52-6.86-3.8-6.83-7.68c0.03-3.77,2.97-7.11,6.61-7.56
		C56.88,36.807,60.69,39.347,61.55,43.807z"/>
	<path fill-rule="evenodd" clip-rule="evenodd" fill="#444444" d="M7.25,24.086h0.73c2.7,0,5.41-0.01,8.11,0
		c0.3,0,0.68-0.02,0.86,0.15c0.29,0.26,0.63,0.67,0.62,1.01c-0.02,0.33-0.39,0.71-0.69,0.96c-0.18,0.15-0.53,0.12-0.81,0.12H3.7
		c-0.12,0-0.25,0.01-0.38-0.01c-0.71-0.07-1.15-0.52-1.12-1.16c0.02-0.59,0.47-1.03,1.14-1.07c0.53-0.02,1.06,0,1.65,0
		c-0.15-0.99-0.27-1.9-0.42-2.81c-0.13-0.82,0.18-1.4,0.86-1.55c0.64-0.14,1.2,0.32,1.34,1.14C6.94,21.917,7.08,22.967,7.25,24.086z
		"/>
	<path fill-rule="evenodd" clip-rule="evenodd" fill="#444444" d="M8.67,32.847h1.58c1.99,0,3.99,0,5.98,0.01
		c0.85,0,1.38,0.44,1.39,1.1c0.01,0.67-0.53,1.14-1.36,1.14c-4.25,0-8.5,0-12.75,0c-0.8-0.01-1.3-0.44-1.31-1.1
		c-0.02-0.7,0.47-1.13,1.33-1.14c0.92-0.01,1.84-0.01,2.87-0.01l-0.44-2.88c-0.07-0.5-0.03-1,0.44-1.24
		c0.3-0.16,0.78-0.24,1.07-0.11c0.29,0.12,0.58,0.52,0.65,0.85C8.35,30.557,8.48,31.657,8.67,32.847z"/>
	<path fill-rule="evenodd" clip-rule="evenodd" fill="#444444" d="M56.14,54.796c2.89,0,5.79,0,8.68,0c0.64,0,1.08,0.35,1.16,0.89
		c0.08,0.55-0.13,0.97-0.65,1.2c-0.16,0.08-0.37,0.09-0.56,0.09H47.39c-0.72,0-1.23-0.49-1.22-1.11c0.02-0.62,0.51-1.07,1.21-1.07
		C50.3,54.796,53.22,54.796,56.14,54.796z"/>
	<path fill-rule="evenodd" clip-rule="evenodd" fill="#444444" d="M28.6,56.987h-5.34c-0.8-0.01-1.28-0.44-1.26-1.13
		c0.01-0.65,0.48-1.06,1.25-1.06h10.68c0.82,0,1.27,0.41,1.26,1.12c-0.01,0.67-0.47,1.06-1.25,1.07H28.6z"/>
	<path fill-rule="evenodd" clip-rule="evenodd" fill="#444444" d="M41.82,56.987c-0.38,0-0.77,0.01-1.15-0.01
		c-0.64-0.03-1.1-0.51-1.09-1.11c0.01-0.57,0.46-1.05,1.06-1.06c0.77-0.02,1.54-0.02,2.31,0c0.61,0.02,1.04,0.48,1.05,1.07
		c0,0.61-0.44,1.07-1.09,1.1C42.55,56.997,42.19,56.987,41.82,56.987z"/>
	<path fill-rule="evenodd" clip-rule="evenodd" fill="#444444" d="M16.47,46.017c0.58,0.02,1.07-0.44,1.09-1.03
		c0.03-0.63-0.41-1.12-1.03-1.13c-0.6-0.01-1.07,0.42-1.1,1.01C15.4,45.497,15.86,45.997,16.47,46.017z M16.48,41.646
		c1.83-0.01,3.34,1.48,3.34,3.29c0,1.77-1.49,3.28-3.28,3.29c-1.82,0.02-3.34-1.45-3.37-3.26
		C13.15,43.157,14.65,41.657,16.48,41.646z"/>
	<path fill-rule="evenodd" clip-rule="evenodd" fill="#444444" d="M53.93,43.856c-0.6-0.02-1.07,0.41-1.1,1
		c-0.04,0.62,0.42,1.14,1.03,1.16c0.59,0.02,1.11-0.47,1.11-1.08C54.97,44.347,54.52,43.876,53.93,43.856z M53.92,41.646
		c1.83,0.01,3.32,1.51,3.29,3.32c-0.02,1.81-1.55,3.29-3.37,3.26c-1.78-0.02-3.27-1.52-3.27-3.3
		C50.58,43.117,52.09,41.626,53.92,41.646z"/>
</g>
</svg>
