<?xml version="1.0" encoding="utf-8"?>
<!-- Generator: Adobe Illustrator 16.0.0, SVG Export Plug-In . SVG Version: 6.00 Build 0)  -->
<!DOCTYPE svg PUBLIC "-//W3C//DTD SVG 1.1//EN" "http://www.w3.org/Graphics/SVG/1.1/DTD/svg11.dtd">
<svg version="1.1" id="Layer_1" xmlns="http://www.w3.org/2000/svg" xmlns:xlink="http://www.w3.org/1999/xlink" x="0px" y="0px"
	 width="40px" height="34px" viewBox="0 0 40 34" enable-background="new 0 0 40 34" xml:space="preserve">
<g>
	<path fill-rule="evenodd" clip-rule="evenodd" fill="#444444" d="M18.08,2.73h3.83V1.32h-3.83V2.73z M11.61,11.82h16.77
		c-0.21-4.07-3.54-7.83-8.34-7.85C15.14,3.95,11.82,7.78,11.61,11.82z M32.66,13.22H7.34v8.75h25.32V13.22z M3.11,32.64h33.75V23.4
		H3.11V32.64z M38.22,32.69H40V34H0v-1.28h1.75V22.04h4.28V11.85h4.13c0.26-0.99,0.42-1.95,0.77-2.84c1.03-2.67,2.9-4.55,5.51-5.66
		c0.24-0.11,0.34-0.22,0.33-0.5C16.75,1.91,16.76,0.97,16.76,0h6.47c0,0.93,0.02,1.85-0.01,2.77c-0.01,0.34,0.11,0.48,0.41,0.62
		c3.39,1.53,5.41,4.14,6.03,7.86c0.03,0.17,0.03,0.35,0.05,0.57h4.24v10.22h4.27V32.69z"/>
	<path fill-rule="evenodd" clip-rule="evenodd" fill="#444444" d="M21.58,26.12c0.38,0,0.72-0.02,1.07,0.01
		c0.08,0,0.21,0.13,0.21,0.2c0.02,1.18,0.01,2.36,0.01,3.57h-1.29V26.12z"/>
	<path fill-rule="evenodd" clip-rule="evenodd" fill="#444444" d="M18.41,29.92h-1.29v-1.08c0-0.79,0.01-1.58,0-2.37
		c-0.01-0.26,0.06-0.38,0.33-0.36c0.31,0.02,0.62,0.01,0.96,0.01V29.92z"/>
	<rect x="8.31" y="26.14" fill-rule="evenodd" clip-rule="evenodd" fill="#444444" width="1.24" height="3.77"/>
	<rect x="30.45" y="26.14" fill-rule="evenodd" clip-rule="evenodd" fill="#444444" width="1.25" height="3.76"/>
	<rect x="12.73" y="26.14" fill-rule="evenodd" clip-rule="evenodd" fill="#444444" width="1.25" height="3.77"/>
	<rect x="26" y="26.15" fill-rule="evenodd" clip-rule="evenodd" fill="#444444" width="1.26" height="3.76"/>
	<rect x="21.58" y="15.72" fill-rule="evenodd" clip-rule="evenodd" fill="#444444" width="1.26" height="3.79"/>
	<path fill-rule="evenodd" clip-rule="evenodd" fill="#444444" d="M18.41,19.5h-1.25v-3.76c0.05-0.02,0.09-0.04,0.12-0.04
		c1.17-0.07,1.17-0.07,1.17,1.1l-0.01,2.57C18.44,19.4,18.43,19.42,18.41,19.5z"/>
	<rect x="26" y="15.73" fill-rule="evenodd" clip-rule="evenodd" fill="#444444" width="1.27" height="3.77"/>
	<rect x="12.73" y="15.72" fill-rule="evenodd" clip-rule="evenodd" fill="#444444" width="1.25" height="3.78"/>
</g>
</svg>
