<?xml version="1.0" encoding="utf-8"?>
<!-- Generator: Adobe Illustrator 16.0.0, SVG Export Plug-In . SVG Version: 6.00 Build 0)  -->
<!DOCTYPE svg PUBLIC "-//W3C//DTD SVG 1.1//EN" "http://www.w3.org/Graphics/SVG/1.1/DTD/svg11.dtd">
<svg version="1.1" id="Layer_1" xmlns="http://www.w3.org/2000/svg" xmlns:xlink="http://www.w3.org/1999/xlink" x="0px" y="0px"
	 width="39.996px" height="40px" viewBox="0 0 39.996 40" enable-background="new 0 0 39.996 40" xml:space="preserve">
<g id="batijF_1_">
	<g>
		<path fill-rule="evenodd" clip-rule="evenodd" fill="#444444" d="M8.422,29.717c-0.056,0.442-0.063,0.834-0.161,1.2
			c-0.148,0.558-0.466,0.765-1.041,0.767c-1.732,0.001-3.465,0.003-5.198-0.002c-0.82-0.002-1.471-0.642-1.471-1.457
			c-0.003-3.718,0.003-7.436-0.004-11.153c-0.001-0.446,0.2-0.708,0.609-0.799c0.286-0.064,0.585-0.093,0.879-0.094
			c1.747-0.008,3.495-0.005,5.242-0.005c0.927,0,1.094,0.167,1.092,1.078c0,0.218,0,0.436,0,0.702c0.21,0,0.369,0,0.527,0
			c1.807,0,3.615-0.041,5.42,0.01c2.061,0.058,3.958,0.654,5.614,1.931c0.148,0.114,0.37,0.184,0.559,0.186
			c1.584,0.015,3.17,0.047,4.754-0.002c1.695-0.053,2.855,1.111,2.682,2.627c-0.008,0.056,0.01,0.116,0.023,0.232
			c0.164-0.052,0.314-0.092,0.457-0.144c2.385-0.848,4.77-1.69,7.148-2.552c0.309-0.112,0.465-0.064,0.65,0.206
			c1.014,1.496,2.049,2.976,3.074,4.462c0.057,0.083,0.1,0.176,0.17,0.301c-1.061,0.397-2.094,0.789-3.131,1.175
			c-5.062,1.884-10.121,3.77-15.188,5.639c-0.211,0.079-0.498,0.081-0.709,0.005c-3.83-1.368-7.654-2.753-11.481-4.137
			C8.776,29.833,8.61,29.779,8.422,29.717z M8.408,21.29c-0.022,0.209-0.037,0.281-0.037,0.352
			c-0.001,2.089,0.006,4.176-0.007,6.265c-0.001,0.277,0.141,0.344,0.35,0.42c3.909,1.416,7.814,2.838,11.726,4.245
			c0.187,0.068,0.443,0.064,0.63-0.004c5.293-1.938,10.582-3.891,15.869-5.841c0.117-0.045,0.229-0.102,0.379-0.168
			c-0.619-0.885-1.211-1.73-1.811-2.59c-0.191,0.068-0.359,0.124-0.523,0.187c-2.389,0.916-4.777,1.84-7.17,2.747
			c-0.27,0.102-0.574,0.152-0.863,0.154c-1.908,0.014-3.82,0.006-5.73,0.006c-1.051,0-2.103,0.006-3.153-0.002
			c-0.444-0.004-0.752-0.305-0.758-0.703c-0.004-0.403,0.296-0.691,0.745-0.713c0.118-0.006,0.237,0,0.355,0
			c2.518,0,5.036,0,7.553,0c0.17,0,0.34,0,0.541,0c0-0.373,0-0.667,0-0.963c0-0.91-0.273-1.176-1.201-1.174
			c-1.775,0-3.553,0.003-5.331-0.006c-0.163-0.002-0.38-0.031-0.48-0.135c-1.025-1.064-2.329-1.669-3.734-1.79
			C13.331,21.369,10.886,21.375,8.408,21.29z M2.008,19.61c0,3.574,0,7.102,0,10.625c1.659,0,3.28,0,4.906,0
			c0-3.559,0-7.085,0-10.625C5.266,19.61,3.655,19.61,2.008,19.61z"/>
		<path fill-rule="evenodd" clip-rule="evenodd" fill="#444444" d="M30.729,19.026c-1.521-0.849-2.947-1.631-4.359-2.441
			c-0.307-0.177-0.541-0.174-0.848,0c-1.275,0.718-2.568,1.412-3.855,2.112c-0.139,0.076-0.281,0.143-0.51,0.257
			c0.119-0.729,0.223-1.367,0.328-2.003c0.186-1.094,0.387-2.185,0.543-3.283c0.025-0.177-0.094-0.426-0.227-0.565
			c-1.049-1.109-2.116-2.199-3.177-3.294c-0.102-0.105-0.198-0.216-0.363-0.396c0.605-0.101,1.145-0.198,1.688-0.279
			c1.083-0.16,2.17-0.293,3.249-0.48c0.203-0.035,0.455-0.227,0.547-0.415c0.678-1.366,1.32-2.748,1.975-4.125
			c0.08-0.17,0.166-0.338,0.287-0.583c0.561,1.202,1.086,2.325,1.611,3.448c0.143,0.309,0.324,0.607,0.422,0.929
			c0.172,0.573,0.533,0.784,1.119,0.856c1.408,0.173,2.807,0.421,4.211,0.641c0.084,0.014,0.166,0.05,0.309,0.094
			c-0.133,0.148-0.234,0.267-0.344,0.378c-1.059,1.078-2.113,2.161-3.184,3.227c-0.234,0.235-0.301,0.458-0.246,0.788
			C30.188,15.565,30.445,17.244,30.729,19.026z M30.855,10.435c-0.201-0.054-0.295-0.087-0.393-0.103
			c-0.891-0.144-1.783-0.271-2.67-0.44c-0.178-0.035-0.395-0.198-0.477-0.36c-0.371-0.724-0.699-1.469-1.043-2.206
			C26.195,7.161,26.111,7,25.98,6.74c-0.389,0.813-0.783,1.496-1.045,2.226c-0.256,0.711-0.686,0.99-1.424,1.032
			c-0.787,0.046-1.568,0.225-2.455,0.36c0.582,0.604,1.045,1.191,1.613,1.645c0.775,0.621,0.928,1.318,0.66,2.241
			c-0.193,0.669-0.238,1.381-0.363,2.162c0.221-0.109,0.352-0.168,0.477-0.236c0.73-0.394,1.463-0.78,2.184-1.189
			c0.232-0.132,0.414-0.144,0.648-0.007c0.715,0.418,1.443,0.815,2.168,1.217c0.131,0.073,0.273,0.127,0.488,0.226
			c-0.166-1.073-0.293-2.054-0.479-3.023c-0.066-0.34,0.018-0.545,0.248-0.774C29.406,11.928,30.092,11.214,30.855,10.435z"/>
	</g>
</g>
</svg>
