<?xml version="1.0" encoding="utf-8"?>
<!-- Generator: Adobe Illustrator 16.0.0, SVG Export Plug-In . SVG Version: 6.00 Build 0)  -->
<!DOCTYPE svg PUBLIC "-//W3C//DTD SVG 1.1//EN" "http://www.w3.org/Graphics/SVG/1.1/DTD/svg11.dtd">
<svg version="1.1" id="Layer_1" xmlns="http://www.w3.org/2000/svg" xmlns:xlink="http://www.w3.org/1999/xlink" x="0px" y="0px"
	 width="67.004px" height="67.002px" viewBox="0 0 67.004 67.002" enable-background="new 0 0 67.004 67.002" xml:space="preserve">
<g>
	<path fill-rule="evenodd" clip-rule="evenodd" fill="#444444" d="M51.29,14.64c-0.54,0.01-1.04,0.52-1.03,1.06
		c0,0.56,0.5,1.04,1.05,1.04c0.56-0.01,1.04-0.51,1.04-1.06C52.35,15.13,51.84,14.64,51.29,14.64z M40.99,52.07l-2.87-2.93
		l-2.97,2.97l2.9,2.91L40.99,52.07z M42.71,44.56l-2.89,2.89l2.88,2.91l2.94-2.91L42.71,44.56z M22.42,24.27l-2.86-2.92l-3,3
		l2.92,2.86L22.42,24.27z M11.94,28.89l2.96,2.93l2.89-2.89l-2.92-2.96L11.94,28.89z M10.28,18.02l2.96-2.96l-2.93-2.98l-3.01,3
		L10.28,18.02z M5.72,22.68l2.96-2.96l-3-3.05l-3,3L5.72,22.68z M11.96,19.6l2.97,3.06l2.95-2.95l-3.02-3.01L11.96,19.6z
		 M10.24,27.21l2.99-2.98l-2.96-2.95l-2.98,2.98L10.24,27.21z M44.29,52.08l3,3l2.98-2.98l-3.02-2.98L44.29,52.08z M45.71,56.69
		l-2.96-2.93l-3,2.96l2.96,2.97L45.71,56.69z M51.96,53.73l-2.92,2.91l2.93,3l2.94-2.96L51.96,53.73z M47.29,64.29l2.99-2.98
		l-2.99-2.98l-2.99,2.98L47.29,64.29z M37.33,17.47c-2.56,3.01-2.67,8.41,1.01,11.76c3.54,3.23,8.67,2.7,11.17,0.43L37.33,17.47z
		 M28.54,30.88c-0.08,0.07-0.19,0.17-0.3,0.28L14.18,45.2c-0.18,0.19-0.36,0.38-0.52,0.59c-0.88,1.19-1.3,2.51-1.03,3.99
		c0.41,2.2,1.73,3.69,3.84,4.37c2.12,0.69,3.92,0.03,5.47-1.51c4.58-4.6,9.18-9.18,13.77-13.78c0.15-0.15,0.3-0.31,0.4-0.41
		L28.54,30.88z M0,19.22l9.28-9.28c0.72-0.72,1.22-0.73,1.9-0.05l13.37,13.36c0.83,0.83,0.82,1.24-0.03,2.08l-3.45,3.44L24.4,32
		l3.08-3.08c0.94-0.94,1.3-0.94,2.22-0.02l3.38,3.41l2.68-2.68c-0.1-0.14-0.21-0.32-0.33-0.49c-3.04-4.23-2.68-10.06,0.83-13.77
		c0.78-0.82,1.24-0.83,2.03-0.04l5.96,5.97c0.57-0.59,1.1-1.15,1.65-1.71c0.72-0.72,1.44-1.46,2.18-2.16
		c0.27-0.26,0.32-0.48,0.22-0.85c-0.5-1.76,0.45-3.46,2.18-3.93c1.72-0.46,3.42,0.54,3.88,2.3c0.59,2.27-1.54,4.41-3.8,3.78
		c-0.51-0.14-0.78-0.04-1.12,0.31c-1.2,1.23-2.43,2.43-3.7,3.7c0.18,0.19,0.33,0.36,0.5,0.53l5.46,5.45
		c0.74,0.75,0.73,1.25-0.05,1.99c-3.76,3.55-9.67,3.89-13.89,0.79l-0.3-0.23L34.77,34l1.81,1.77l1.66,1.67
		c0.7,0.7,0.7,1.18-0.01,1.89c-1.1,1.12-2.22,2.22-3.28,3.28l3.25,3.3l3.43-3.42c0.89-0.89,1.28-0.9,2.18,0l13.14,13.13
		c0.89,0.89,0.89,1.29,0,2.18l-8.56,8.55c-0.86,0.87-1.27,0.87-2.13,0L33.07,53.18c-0.86-0.87-0.86-1.28,0-2.14l3.49-3.45
		l-3.29-3.26c-0.1,0.09-0.27,0.24-0.44,0.4c-3.19,3.19-6.36,6.4-9.58,9.57c-4.18,4.12-11.07,2.21-12.54-3.48
		c-0.71-2.73,0.01-5.13,2-7.13c3.17-3.18,6.35-6.35,9.53-9.52c0.15-0.16,0.33-0.28,0.46-0.39l-3.35-3.29l-2.89,2.9
		c-0.25,0.25-0.49,0.5-0.74,0.74c-0.61,0.57-1.12,0.57-1.71-0.02c-1.49-1.47-2.97-2.95-4.45-4.43l-8.92-8.93
		C0.41,20.52,0.21,20.26,0,20.01V19.22z"/>
	<path fill-rule="evenodd" clip-rule="evenodd" fill="#444444" d="M52.82,0c6.47,0.1,12.35,4.92,13.78,11.21
		c0.24,1.07,0.31,2.19,0.4,3.29c0.05,0.76-0.39,1.2-1.06,1.19c-0.63-0.01-1-0.43-1.02-1.17c-0.21-5.78-3.8-10.47-9.2-11.94
		c-1.02-0.28-2.1-0.37-3.15-0.48c-0.84-0.08-1.28-0.4-1.26-1.08C51.32,0.35,51.76,0,52.61,0H52.82z"/>
	<path fill-rule="evenodd" clip-rule="evenodd" fill="#444444" d="M62.82,14.21c0,0.16,0.01,0.31,0,0.46
		c-0.04,0.62-0.46,1.02-1.05,1.02s-0.94-0.41-1.05-1.02c-0.21-1.15-0.29-2.36-0.76-3.4c-1.43-3.2-4.02-4.81-7.5-4.99
		c-0.6-0.03-1.02-0.25-1.13-0.85c-0.11-0.53,0.11-0.95,0.62-1.16c0.17-0.07,0.38-0.08,0.57-0.08c4.91-0.06,9.45,3.84,10.17,8.72
		c0.06,0.43,0.11,0.87,0.16,1.3H62.82z"/>
	<path fill-rule="evenodd" clip-rule="evenodd" fill="#444444" d="M52.67,8.37c3.14,0.06,5.97,2.97,5.95,6.12
		c0,0.7-0.41,1.18-1.02,1.2c-0.63,0.03-1.05-0.35-1.1-1.1c-0.14-1.9-1.05-3.23-2.86-3.89c-0.38-0.14-0.8-0.19-1.21-0.23
		c-0.75-0.07-1.18-0.45-1.16-1.11c0.02-0.62,0.47-0.99,1.2-0.99H52.67z"/>
</g>
</svg>
