<?xml version="1.0" encoding="utf-8"?>
<!-- Generator: Adobe Illustrator 16.0.0, SVG Export Plug-In . SVG Version: 6.00 Build 0)  -->
<!DOCTYPE svg PUBLIC "-//W3C//DTD SVG 1.1//EN" "http://www.w3.org/Graphics/SVG/1.1/DTD/svg11.dtd">
<svg version="1.1" id="Layer_1" xmlns="http://www.w3.org/2000/svg" xmlns:xlink="http://www.w3.org/1999/xlink" x="0px" y="0px"
	 width="20px" height="20px" viewBox="33.257 7.681 20 20" enable-background="new 33.257 7.681 20 20" xml:space="preserve">
<g>
	<path fill="#FFFFFF" d="M50.923,16.331H48.51v-2.412c0-0.184-0.149-0.334-0.333-0.334H47.49c-0.185,0-0.334,0.15-0.334,0.334v2.412
		h-2.413c-0.184,0-0.333,0.149-0.333,0.334v0.688c0,0.185,0.149,0.333,0.333,0.333h2.413v2.414c0,0.184,0.149,0.333,0.334,0.333
		h0.688c0.184,0,0.333-0.149,0.333-0.333v-2.414h2.412c0.184,0,0.334-0.149,0.334-0.334v-0.687
		C51.257,16.48,51.106,16.331,50.923,16.331z"/>
	<path fill="#FFFFFF" d="M42.816,18.446c-0.508-0.359-0.969-0.887-0.977-1.049c0-0.294,0.025-0.436,0.688-0.95
		c0.854-0.67,1.325-1.55,1.325-2.479c0-0.843-0.258-1.592-0.695-2.118h0.34c0.07,0,0.14-0.021,0.195-0.062l0.949-0.688
		c0.117-0.085,0.168-0.235,0.122-0.373c-0.045-0.138-0.173-0.231-0.317-0.231h-4.244c-0.464,0-0.937,0.082-1.399,0.241
		c-1.547,0.533-2.629,1.852-2.629,3.205c0,1.916,1.485,3.369,3.471,3.415c-0.038,0.152-0.059,0.302-0.059,0.448
		c0,0.296,0.075,0.575,0.229,0.846c-0.018,0-0.035,0-0.055,0c-1.892,0-3.6,0.929-4.248,2.311c-0.169,0.359-0.255,0.723-0.255,1.081
		c0,0.349,0.089,0.685,0.266,0.999c0.407,0.729,1.282,1.295,2.465,1.594c0.611,0.154,1.267,0.233,1.947,0.233
		c0.613,0,1.196-0.079,1.736-0.235c1.682-0.488,2.77-1.727,2.77-3.156C44.44,20.104,43.999,19.283,42.816,18.446z M37.455,21.586
		c0-0.998,1.269-1.873,2.713-1.873h0.039c0.313,0.004,0.621,0.051,0.91,0.139c0.099,0.068,0.194,0.134,0.286,0.196
		c0.67,0.456,1.112,0.757,1.234,1.24c0.029,0.122,0.044,0.243,0.044,0.361c0,1.242-0.927,1.872-2.755,1.872
		C38.541,23.521,37.455,22.672,37.455,21.586z M38.77,12.158c0.226-0.258,0.521-0.395,0.854-0.395l0.037,0.001
		c0.938,0.027,1.836,1.073,2.001,2.33c0.093,0.704-0.063,1.366-0.418,1.77c-0.227,0.259-0.518,0.395-0.863,0.395c0,0,0,0-0.001,0
		h-0.016c-0.918-0.028-1.835-1.113-1.999-2.369C38.273,13.187,38.421,12.556,38.77,12.158z"/>
</g>
</svg>
