<?xml version="1.0" encoding="utf-8"?>
<!-- Generator: Adobe Illustrator 16.0.0, SVG Export Plug-In . SVG Version: 6.00 Build 0)  -->
<!DOCTYPE svg PUBLIC "-//W3C//DTD SVG 1.1//EN" "http://www.w3.org/Graphics/SVG/1.1/DTD/svg11.dtd">
<svg version="1.1" id="Layer_1" xmlns="http://www.w3.org/2000/svg" xmlns:xlink="http://www.w3.org/1999/xlink" x="0px" y="0px"
	 width="20px" height="20px" viewBox="32.837 10.326 20 20" enable-background="new 32.837 10.326 20 20" xml:space="preserve">
<path fill="#FFFFFF" d="M50.837,15.365c-0.588,0.261-1.221,0.438-1.885,0.516c0.678-0.406,1.198-1.049,1.442-1.816
	c-0.634,0.376-1.336,0.65-2.084,0.797c-0.599-0.637-1.452-1.037-2.396-1.037c-1.812,0-3.282,1.47-3.282,3.283
	c0,0.257,0.029,0.507,0.086,0.749c-2.729-0.138-5.148-1.444-6.767-3.431c-0.283,0.485-0.444,1.049-0.444,1.651
	c0,1.139,0.579,2.144,1.46,2.732c-0.538-0.017-1.044-0.165-1.487-0.411c0,0.014,0,0.028,0,0.042c0,1.59,1.132,2.917,2.633,3.218
	c-0.274,0.075-0.564,0.115-0.864,0.115c-0.211,0-0.417-0.021-0.617-0.059c0.418,1.304,1.63,2.253,3.066,2.28
	c-1.124,0.88-2.539,1.405-4.077,1.405c-0.266,0-0.526-0.016-0.783-0.046c1.453,0.932,3.178,1.475,5.032,1.475
	c6.038,0,9.34-5.002,9.34-9.34c0-0.142-0.003-0.284-0.01-0.425C49.841,16.6,50.397,16.022,50.837,15.365z"/>
</svg>
